<?xml version="1.0" encoding="UTF-8" standalone="no"?>
<!-- Created with Inkscape (http://www.inkscape.org/) -->

<svg
   xmlns:dc="http://purl.org/dc/elements/1.1/"
   xmlns:cc="http://creativecommons.org/ns#"
   xmlns:rdf="http://www.w3.org/1999/02/22-rdf-syntax-ns#"
   xmlns:svg="http://www.w3.org/2000/svg"
   xmlns="http://www.w3.org/2000/svg"
   xmlns:sodipodi="http://sodipodi.sourceforge.net/DTD/sodipodi-0.dtd"
   xmlns:inkscape="http://www.inkscape.org/namespaces/inkscape"
   id="svg4371"
   version="1.1"
   inkscape:version="0.91 r13725"
   width="267"
   height="267"
   viewBox="0 0 267 267"
   sodipodi:docname="logo-white.svg">
  <metadata
     id="metadata4377">
    <rdf:RDF>
      <cc:Work
         rdf:about="">
        <dc:format>image/svg+xml</dc:format>
        <dc:type
           rdf:resource="http://purl.org/dc/dcmitype/StillImage" />
        <dc:title></dc:title>
      </cc:Work>
    </rdf:RDF>
  </metadata>
  <defs
     id="defs4375" />
  <sodipodi:namedview
     pagecolor="#ffffff"
     bordercolor="#666666"
     borderopacity="1"
     objecttolerance="10"
     gridtolerance="10"
     guidetolerance="10"
     inkscape:pageopacity="0"
     inkscape:pageshadow="2"
     inkscape:window-width="3726"
     inkscape:window-height="2118"
     id="namedview4373"
     showgrid="false"
     inkscape:zoom="1.2778241"
     inkscape:cx="-653.54985"
     inkscape:cy="192.01498"
     inkscape:window-x="114"
     inkscape:window-y="42"
     inkscape:window-maximized="1"
     inkscape:current-layer="svg4371" />
  <path
     style="fill:#ffffff"
     d="M 123.93258,266.42273 C 98.909521,264.46206 74.150801,255.11007 54.415571,240.16442 47.369831,234.82861 39.973961,227.97148 34.247181,221.46516 -1.2034487,181.18885 -8.8751987,123.08944 14.895951,74.915164 c 15.8098,-32.039922 43.60259,-56.260185 77.59304,-67.6191139 6.63992,-2.218926 14.035189,-3.996063 21.393589,-5.141033 3.38012,-0.525947 5.39227,-0.583501 20.4,-0.583501 14.97076,0 17.02821,0.05854 20.4,0.580433 36.83191,5.700918 69.52213,26.5390149 90.14666,57.4632119 4.18007,6.267553 6.48054,10.271733 9.47952,16.500003 13.52496,28.088516 16.68384,60.095996 8.94727,90.658526 -9.28155,36.66582 -34.32583,67.98819 -68.22345,85.32567 -7.06575,3.61389 -11.5778,5.50756 -18.9,7.93216 -10.8276,3.58536 -20.56652,5.5213 -32.36857,6.43435 -4.52605,0.35016 -15.1057,0.32714 -19.83143,-0.0431 z m 24.75,-5.77903 c 22.02593,-2.59897 43.06979,-10.76757 60.5401,-23.49987 23.14249,-16.86615 39.88013,-40.64222 47.76042,-67.84436 7.19094,-24.82258 6.66879,-51.41705 -1.49088,-75.934306 -6.14506,-18.464 -16.01176,-34.651125 -29.65317,-48.648489 -20.84842,-21.39242 -46.57487,-34.075221 -77.00647,-37.9631759 -3.34286,-0.427084 -6.34286,-0.534983 -14.7,-0.528701 -9.23931,0.0069 -11.11233,0.09055 -15.6,0.696347 C 102.88989,9.0327701 90.301141,12.888693 76.832581,19.693815 56.689051,29.871532 40.436511,44.288422 27.938931,63.065161 16.267521,80.600634 9.5761813,99.297174 7.1908513,121.03813 c -0.60666,5.52935 -0.68473,18.71892 -0.14252,24.07703 3.1264197,30.8954 15.6146897,57.48271 37.0662097,78.91335 14.4596,14.44554 30.83585,24.54366 50.11804,30.9044 10.624969,3.50492 17.660159,4.90095 31.499999,6.25072 2.97758,0.29039 19.13451,-0.0897 22.95,-0.53993 z m -23.55,-6.966 c -11.78548,-1.19456 -19.66498,-2.80686 -29.099999,-5.95441 -21.74816,-7.25525 -41.20819,-20.87843 -55.76461,-39.03854 -2.941,-3.6691 -8.59327,-12.04256 -10.95918,-16.23528 -7.69335,-13.63372 -12.68145,-29.27679 -14.61515,-45.83431 -0.7251,-6.20874 -0.7293,-19.55976 -0.008,-25.71937 0.68066,-5.81329 1.80725,-12.06336 3.04278,-16.88063 13.17087,-51.352697 58.30226,-88.116567 110.997779,-90.418406 28.28296,-1.235452 55.12266,6.972776 77.40647,23.67276 24.55364,18.401049 40.97214,44.79295 46.46843,74.695646 1.47479,8.0236 1.81522,12.1027 1.81522,21.75 0,11.87284 -0.91026,19.38316 -3.63604,30 -10.85645,42.28553 -44.56405,75.93894 -86.64761,86.50831 -10.54946,2.64952 -16.44103,3.37409 -28.35,3.48659 -5.1975,0.0491 -9.99,0.0345 -10.65,-0.0324 z M 52.446331,187.26571 c 2.00239,-0.7567 4.02154,-2.67748 4.95271,-4.71142 0.84556,-1.84696 0.9689,-4.65229 0.29104,-6.6198 l -0.43,-1.24809 13.63098,-17.63562 c 7.49705,-9.69959 13.89122,-17.93937 14.20927,-18.31062 0.5414,-0.63195 0.8128,-0.67494 4.25527,-0.674 2.02234,6e-4 5.80323,0.0892 8.40198,0.19697 l 4.724999,0.19597 0,6.23281 c 0,5.71224 -0.0446,6.24697 -0.53393,6.40228 -0.29366,0.0932 -1.16789,0.79449 -1.94274,1.55842 -2.416609,2.38255 -3.180969,5.62588 -2.146659,9.10877 0.6309,2.12448 3.205879,4.77127 5.351769,5.50101 5.4634,1.85792 11.07486,-1.50958 12.01224,-7.20868 0.48531,-2.95062 -1.10172,-6.47958 -3.81568,-8.48465 l -1.425,-1.05278 0,-6.07556 0,-6.07556 9.6,0 9.6,0 0,16.17553 0,16.17553 -1.02902,0.63597 c -4.89618,3.026 -5.57366,9.92342 -1.37862,14.03559 5.4495,5.34185 15.01437,1.29365 15.00597,-6.35106 -0.003,-3.01145 -1.39679,-5.77797 -3.74347,-7.43207 l -1.35486,-0.95499 0,-16.14225 0,-16.14225 9.6,0 9.6,0 0,6.1423 0,6.14229 -0.86099,0.44523 c -0.47354,0.24489 -1.46468,1.11669 -2.20253,1.93736 -5.01506,5.57795 -1.29988,14.29824 6.25654,14.68537 1.83478,0.094 2.40703,-0.009 3.97854,-0.71393 6.44829,-2.89382 7.19716,-11.40114 1.36544,-15.51171 l -1.337,-0.94241 0,-6.09225 0,-6.09225 9.6,0 9.6,0 0,24.79584 0,24.79583 3.22661,-0.18461 c 19.04485,-1.08967 36.53443,-12.97333 44.78631,-30.431 8.01138,-16.94886 6.44145,-37.09712 -4.09275,-52.5256 -4.25938,-6.238326 -10.26861,-11.965666 -16.51972,-15.744826 -2.82849,-1.70998 -7.74835,-3.97856 -10.75733,-4.96028 -4.6568,-1.51934 -11.54809,-2.74535 -15.4313,-2.74535 l -1.21182,0 0,24.749996 0,24.75 -9.6,0 -9.6,0 0,-6.23178 0,-6.23178 1.1021,-0.59322 c 2.59594,-1.3973 4.54833,-5.31534 4.18579,-8.4 -0.25734,-2.18956 -0.9116,-3.58045 -2.46574,-5.24196 -5.20538,-5.564966 -14.54995,-2.36534 -15.33604,5.25113 -0.31931,3.09376 1.34944,6.52471 4.05838,8.34406 l 1.26778,0.85145 -0.0811,6.05105 -0.0811,6.05105 -9.525,0.0792 -9.525,0.0792 0,-16.16971 0,-16.169716 0.825,-0.52334 c 2.56207,-1.62525 3.9868,-4.02815 4.20799,-7.09705 0.5692,-7.89732 -8.76891,-12.51395 -14.63823,-7.23693 -3.85814,3.4688 -4.15005,9.16849 -0.65496,12.78804 0.61061,0.63235 1.48145,1.34457 1.9352,1.58271 l 0.825,0.43297 0,16.192296 0,16.1923 -9.6,0 -9.6,0 0.002,-6.225 0.002,-6.225 1.18266,-0.67531 c 2.36183,-1.34872 4.02461,-4.48186 4.01976,-7.57469 -0.01,-6.38124 -6.66848,-10.705256 -12.40722,-8.05726 -2.21756,1.02324 -3.306079,1.99792 -4.363819,3.90744 -0.78788,1.42236 -0.88578,1.88268 -0.88258,4.14982 0.003,2.06156 0.13255,2.79262 0.67684,3.81666 0.87569,1.64755 2.338989,3.30041 3.414089,3.85637 l 0.85547,0.44238 0,6.29229 0,6.2923 -8.324999,-0.005 c -4.57875,-0.002 -8.47064,-0.10378 -8.64866,-0.225 -0.178,-0.12122 -6.61405,-8.29861 -14.30232,-18.17197 l -13.97793,-17.951116 0.44343,-1.24844 c 0.66317,-1.86706 0.57279,-4.66161 -0.20958,-6.48027 -1.3126,-3.05122 -4.9177,-5.41817 -8.25241,-5.41817 -3.02252,0 -6.51563,2.19972 -7.9192,4.98697 -0.99174,1.96945 -1.17524,4.93631 -0.43297,7.00051 1.28698,3.57898 4.49395,5.8076 8.44457,5.86841 l 2.1692,0.0334 13.6558,17.526326 c 7.51069,9.63948 13.6558,17.60672 13.6558,17.70498 0,0.0983 -6.15056,8.13257 -13.6679,17.85403 l -13.6679,17.67538 -1.8571,0.0254 c -2.55841,0.0349 -4.11912,0.5395 -5.81343,1.87944 -2.03994,1.61329 -3.15582,3.7884 -3.32183,6.47505 -0.18702,3.02655 0.61826,5.04393 2.81472,7.05136 2.60203,2.37811 5.94491,3.04083 9.17719,1.81935 z m -5.39149,-4.49893 c -2.80587,-1.71076 -2.88769,-5.8543 -0.14901,-7.54689 2.018,-1.2472 4.8773,-0.62218 6.10656,1.33483 0.86003,1.3692 0.67729,4.08668 -0.34866,5.18484 -1.59046,1.7024 -3.82908,2.11239 -5.60889,1.02722 z m 83.751129,0.0311 c -1.59282,-0.97129 -2.22352,-2.03506 -2.22227,-3.74818 0.002,-2.70842 1.73355,-4.47966 4.38257,-4.48299 2.44276,-0.003 4.31631,1.96082 4.31631,4.52442 0,3.13835 -3.82177,5.32565 -6.47661,3.70675 z m -26.85403,-20.2137 c -2.5342,-1.69296 -2.73818,-4.95661 -0.44376,-7.10017 1.09816,-1.02595 3.81564,-1.20869 5.18484,-0.34866 1.95701,1.22926 2.58203,4.08856 1.33483,6.10656 -1.23661,2.00087 -4.13241,2.64061 -6.07591,1.34227 z m 53.13049,0.006 c -1.93832,-1.32307 -2.58076,-3.61596 -1.57439,-5.61902 1.45389,-2.89378 5.67568,-3.27268 7.52512,-0.67537 1.43901,2.0209 0.85474,5.10438 -1.20517,6.36027 -1.37558,0.83866 -3.46285,0.80969 -4.74556,-0.0659 z m 44.78971,-6.51285 c -1.27488,-0.77734 -1.88956,-2.0489 -1.88956,-3.90886 0,-1.35585 0.12876,-1.66455 1.15171,-2.76121 1.02569,-1.09959 1.32934,-1.24787 2.775,-1.35509 2.95296,-0.21899 4.9053,1.73335 4.6863,4.68631 -0.10721,1.44566 -0.25549,1.74931 -1.35508,2.775 -1.10992,1.03532 -1.39504,1.1516 -2.82131,1.15059 -1.04399,-6e-4 -1.91509,-0.2014 -2.54706,-0.58674 z m 0.10283,-35.36352 c -2.79445,-1.90094 -2.66114,-6.29348 0.23268,-7.66668 2.16502,-1.02737 4.65649,-0.31073 5.87655,1.69032 1.08517,1.77981 0.67518,4.01843 -1.02722,5.60889 -1.08442,1.01312 -3.83999,1.21236 -5.08201,0.36747 z m -97.67107,-6.57409 c -1.38973,-0.70864 -2.15709,-1.838 -2.33772,-3.44055 -0.25365,-2.2504 1.39796,-4.43863 3.67219,-4.86527 2.63511,-0.49435 5.56985,2.44039 5.0755,5.0755 -0.551,2.93712 -3.78689,4.56786 -6.40997,3.23033 z m 53.074,-0.0308 c -3.99992,-2.12842 -2.43763,-8.25916 2.10468,-8.25916 3.39264,0 5.43743,3.39896 3.84043,6.38379 -1.20991,2.26138 -3.72732,3.05549 -5.94511,1.87537 z M 47.363781,94.291884 c -3.29644,-1.53764 -3.34664,-6.13847 -0.0859,-7.87124 2.88015,-1.53051 6.30625,0.59675 6.30356,3.91388 -0.003,3.39299 -3.14291,5.39159 -6.21768,3.95736 z m 83.624779,0.0478 c -1.49863,-0.75294 -2.40598,-2.25182 -2.40598,-3.97453 0,-3.34888 3.41035,-5.48257 6.30468,-3.94452 3.20539,1.70335 3.19661,6.12246 -0.0155,7.76952 -1.58252,0.81147 -2.49575,0.84664 -3.88326,0.14953 z"
     id="path4381"
     inkscape:connector-curvature="0" />
</svg>
